<svg xmlns="http://www.w3.org/2000/svg" viewBox="550 3328.637 45.832 34.363">
  <g id="Logo" transform="translate(553 3325)">
    <path style="fill: #685bc7" id="Path_11" data-name="Path 11" class="cls-1" d="M82.461,10.7l.983-3.678a1.024,1.024,0,0,0-1.249-1.249l-3.537.94A15.092,15.092,0,0,0,72.62,4.071L70.571.505a1.026,1.026,0,0,0-1.769,0l-2.063,3.58A15.378,15.378,0,0,0,60.7,6.724l-3.537-.94a1.024,1.024,0,0,0-1.249,1.249L56.9,10.71a15.2,15.2,0,0,0-2.5,8.366v5.1a5.1,5.1,0,0,0,5.1,5.1h2.035a.5.5,0,0,1,.505.505v2.541a2.037,2.037,0,0,0,2.035,2.035h11.2a2.037,2.037,0,0,0,2.035-2.035V29.773a.5.5,0,0,1,.505-.505H79.85a5.1,5.1,0,0,0,5.1-5.1v-5.1A15.043,15.043,0,0,0,82.461,10.7ZM63.566,23.147a4.071,4.071,0,1,1,4.071-4.071A4.074,4.074,0,0,1,63.566,23.147Zm7.889,5.4H67.918a.776.776,0,0,1-.674-1.165l1.769-3.06a.778.778,0,0,1,1.348,0l1.769,3.06A.781.781,0,0,1,71.455,28.552Zm4.338-5.4a3.06,3.06,0,1,1,3.06-3.06A3.058,3.058,0,0,1,75.793,23.147Z" transform="translate(-49.764 3.637)"/>
    <path style="fill: #222633" id="Path_12" data-name="Path 12" class="cls-2" d="M284.5,99.6h-1.614a.513.513,0,0,0-.491.646,17.187,17.187,0,0,1,.576,4.45v5.1a7.675,7.675,0,0,1-.14,1.4.515.515,0,0,0,.491.632H284.5a4.074,4.074,0,0,0,4.071-4.071v-4.071A4.059,4.059,0,0,0,284.5,99.6Z" transform="translate(-245.74 -81.982)"/>
    <path style="fill: #222633" id="Path_13" data-name="Path 13" class="cls-2" d="M11.2,116.922H7.257a2.681,2.681,0,0,1-2.681-2.681v-2.414H5.25a.508.508,0,0,0,.491-.632,6.615,6.615,0,0,1-.14-1.4v-5.1a17.186,17.186,0,0,1,.576-4.45.513.513,0,0,0-.491-.646H4.071A4.074,4.074,0,0,0,0,103.671v4.071a4.072,4.072,0,0,0,2.541,3.776h0v2.723a4.718,4.718,0,0,0,4.717,4.717h.477a1.534,1.534,0,0,0,1.432,1.025H11.2a1.53,1.53,0,1,0,0-3.06Z" transform="translate(-3 -81.982)"/>
  </g>
</svg>
